<?xml version="1.0" standalone="no"?>
<svg xmlns="http://www.w3.org/2000/svg" viewBox="0 0 117.625 36" width="117.625" height="36"><g fill="#ead017" color="#ead017" transform="translate(0 3.9999999999999982) scale(0.5600001)"><svg width="50.0" height="50.0" x="0.0" y="0.0" viewBox="0 0 50 50"><path fill="currentColor" fill-rule="evenodd" d="M24.968 0C11.178 0 0 11.178 0 24.968c0 7.13 2.993 13.555 7.784 18.104V28.647h4.083v17.576a24.911 24.911 0 0 0 5.424 2.506V15.22h4.083v34.456c1.174.17 2.373.262 3.594.262.616 0 1.225-.03 1.83-.075V34.606h4.083v14.62a24.785 24.785 0 0 0 5.424-2.014V23.783h4.083V44.6c5.81-4.572 9.549-11.663 9.549-19.63C49.937 11.178 38.757 0 24.967 0"></path></svg></g><path fill="#000000" fill-rule="nonzero" d="M0 20.74L0 3.17L4.10 3.17L4.10 5.21Q4.39 4.08 5.09 3.53Q5.78 2.98 7.06 2.98L7.06 2.98Q8.09 2.98 8.84 3.44Q9.60 3.91 9.91 4.73L9.91 4.73Q10.44 3.82 11.09 3.40Q11.74 2.98 12.89 2.98L12.89 2.98Q14.95 2.98 15.76 4.24Q16.56 5.50 16.56 7.90L16.56 7.90L16.51 20.74L12.29 20.74L12.29 7.82Q12.29 6.12 11.42 6.12L11.42 6.12Q10.82 6.12 10.56 6.71Q10.30 7.30 10.30 8.11L10.30 8.11L10.30 20.74L6.10 20.74L6.10 7.82Q6.10 7.08 5.94 6.62Q5.78 6.17 5.28 6.17L5.28 6.17Q4.63 6.17 4.37 6.80Q4.10 7.44 4.10 8.33L4.10 8.33L4.10 20.74L0 20.74ZM23.30 20.93Q18.05 20.93 18.05 15.48L18.05 15.48L18.05 8.42Q18.05 5.93 19.45 4.45Q20.86 2.98 23.30 2.98L23.30 2.98Q25.75 2.98 27.16 4.45Q28.56 5.93 28.56 8.42L28.56 8.42L28.56 15.48Q28.56 20.93 23.30 20.93L23.30 20.93ZM23.30 17.69Q23.81 17.69 24.05 17.33Q24.29 16.97 24.29 16.34L24.29 16.34L24.29 7.75Q24.29 6.22 23.30 6.22L23.30 6.22Q22.32 6.22 22.32 7.75L22.32 7.75L22.32 16.34Q22.32 16.97 22.56 17.33Q22.80 17.69 23.30 17.69L23.30 17.69ZM36.10 20.74L31.97 20.74L31.97 4.08L29.52 4.08L29.52 0.12L38.54 0.12L38.54 4.08L36.10 4.08L36.10 20.74ZM39.62 20.74L39.62 3.17L43.82 3.17L43.82 5.11Q44.14 4.08 44.92 3.52Q45.70 2.95 46.85 2.95L46.85 2.95L46.85 6.46Q45.96 6.46 44.89 6.71Q43.82 6.96 43.82 7.30L43.82 7.30L43.82 20.74L39.62 20.74ZM51.07 20.93Q49.03 20.93 48.28 19.57Q47.52 18.22 47.52 15.70L47.52 15.70Q47.52 13.63 48.06 12.53Q48.60 11.42 49.56 10.91Q50.52 10.39 52.49 9.77L52.49 9.77L53.64 9.38L53.64 9.34L53.64 7.58Q53.64 6.89 53.36 6.52Q53.09 6.14 52.70 6.14L52.70 6.14Q52.37 6.14 52.12 6.46Q51.86 6.77 51.86 7.30L51.86 7.30L51.86 8.35L47.78 8.35L47.78 7.78Q47.78 5.18 49.00 4.08Q50.21 2.98 52.94 2.98L52.94 2.98Q55.13 2.98 56.50 4.12Q57.86 5.26 57.86 7.34L57.86 7.34L57.86 20.74L53.69 20.74L53.69 18.65Q53.38 19.73 52.69 20.33Q52.01 20.93 51.07 20.93L51.07 20.93ZM52.73 17.66Q53.21 17.66 53.41 17.27Q53.62 16.87 53.62 16.30L53.62 16.30L53.62 11.40Q52.68 11.76 52.24 12.31Q51.79 12.86 51.79 13.85L51.79 13.85L51.79 16.10Q51.79 17.66 52.73 17.66L52.73 17.66ZM62.93 20.93Q61.39 20.93 60.61 20.20Q59.83 19.46 59.58 18.25Q59.33 17.04 59.33 15.14L59.33 15.14L59.38 7.22Q59.38 5.35 60.32 4.16Q61.27 2.98 63 2.98L63 2.98Q64.70 2.98 65.54 4.10L65.54 4.10L65.54 0L69.74 0L69.74 20.74L65.54 20.74L65.54 18.86Q65.18 19.90 64.57 20.41Q63.96 20.93 62.93 20.93L62.93 20.93ZM64.54 17.64Q65.16 17.64 65.35 17.03Q65.54 16.42 65.54 15.38L65.54 15.38L65.54 14.64L65.54 8.04Q65.54 7.27 65.33 6.74Q65.11 6.22 64.56 6.22L64.56 6.22Q63.94 6.22 63.73 6.71Q63.53 7.20 63.53 8.04L63.53 8.04L63.53 15.43Q63.53 17.64 64.54 17.64L64.54 17.64ZM76.34 20.93Q73.63 20.93 72.46 19.44Q71.28 17.95 71.28 15L71.28 15L71.28 7.94Q71.28 5.52 72.67 4.25Q74.06 2.98 76.56 2.98L76.56 2.98Q81.62 2.98 81.62 7.94L81.62 7.94L81.62 9.22Q81.62 11.14 81.58 12.34L81.58 12.34L75.48 12.34L75.48 15.74Q75.48 16.66 75.67 17.17Q75.86 17.69 76.49 17.69L76.49 17.69Q76.97 17.69 77.17 17.40Q77.38 17.11 77.41 16.74Q77.45 16.37 77.45 15.65L77.45 15.65L77.45 13.94L81.62 13.94L81.62 14.95Q81.62 18.02 80.44 19.48Q79.25 20.93 76.34 20.93L76.34 20.93ZM75.46 10.25L77.45 10.25L77.45 7.99Q77.45 6.10 76.51 6.10L76.51 6.10Q75.46 6.10 75.46 7.99L75.46 7.99L75.46 10.25Z" transform="translate(36, 7.632)"></path></svg>